# xmcd
#
# Track frame offsets: 
#        150
#        12628
#        18576
#        33833
#        53919
#        70087
#        84868
#        99280
#        109490
#        125035
#        147559
#        172062
#        190432
#
# Disc length: 3047 seconds
#
# Revision: 0
# Processed by: cddbd v1.5.2PL0 Copyright (c) Steve Scherf et al.
# Submitted via: ExactAudioCopyFreeDBPlugin 1.0
#
DISCID=b90be50d
DTITLE=胡美儀 - 福音粵曲小調: 福愛滿人間
DYEAR=2000
DGENRE=Gospel
TTITLE0=千禧頌
TTITLE1=祝壽歌
TTITLE2=雨後隨想曲
TTITLE3=情人節
TTITLE4=幸福鐘聲
TTITLE5=媳婦宣言
TTITLE6=出生歌
TTITLE7=莫蹉跎
TTITLE8=慈母的祝福
TTITLE9=萬國君
TTITLE10=主愛遍人寰
TTITLE11=浪子回頭
TTITLE12=百花齊放
EXTD=
EXTT0=
EXTT1=
EXTT2=
EXTT3=
EXTT4=
EXTT5=
EXTT6=
EXTT7=
EXTT8=
EXTT9=
EXTT10=
EXTT11=
EXTT12=
PLAYORDER=
